<?xml version="1.0" encoding="UTF-8"?>
<svg id="Livello_1" data-name="Livello 1" xmlns="http://www.w3.org/2000/svg" viewBox="0 0 327.87 327.87">
  <defs>
    <style>
      .cls-1 {
        fill: #fff;
      }

      .cls-1, .cls-2, .cls-3, .cls-4, .cls-5 {
        fill-rule: evenodd;
      }

      .cls-2 {
        fill: #fbbb21;
      }

      .cls-3 {
        fill: #e63323;
      }

      .cls-4 {
        fill: #2c2760;
      }

      .cls-5 {
        fill: #286d36;
      }
    </style>
  </defs>
  <path class="cls-1" d="m325.41,163.94c0,89.18-72.29,161.47-161.47,161.47S2.47,253.11,2.47,163.94,74.76,2.47,163.94,2.47s161.47,72.29,161.47,161.47h0Z"/>
  <path class="cls-2" d="m0,163.94c0,90.39,73.54,163.94,163.94,163.94s163.94-73.54,163.94-163.94S254.33,0,163.94,0,0,73.54,0,163.94h0Zm4.93,0C4.93,76.26,76.26,4.94,163.94,4.94s159,71.33,159,159-71.33,159-159,159S4.93,251.61,4.93,163.94h0Z"/>
  <path class="cls-4" d="m56.29,163.94c0-59.45,48.2-107.65,107.65-107.65s107.65,48.19,107.65,107.65-48.2,107.65-107.65,107.65-107.65-48.2-107.65-107.65h0Z"/>
  <path class="cls-1" d="m217.86,190.96v-1.25h-3.96c-1.68,2.07-3.71,4.04-6.14,5.73-4.02,2.79-9.17,5.38-19.49,5.38-4.16,0-8.04-.72-11.57-2.05l-44.5,68.06c10.04,3.09,20.69,4.76,31.74,4.76,3.38,0,6.72-.18,10.02-.48l47.83-73.16c-2.35-1.45-3.93-4.02-3.93-6.98h0Z"/>
  <path class="cls-5" d="m164.05,189.71h-6.11c-5.05,6.91-13.62,11.1-24.15,11.1-1.43,0-2.88-.06-4.35-.18l-31.56,48.27c10.15,7.9,21.73,14.04,34.31,17.92l44.5-68.06c-4.98-1.87-9.26-4.96-12.64-9.05h0Z"/>
  <path class="cls-3" d="m253.09,190.96v-34.96c0-2.7-.25-4.28-.48-5.19l-9.13,13.96v26.19c0,4.54-3.68,8.23-8.22,8.23h-9.17c-1.58,0-3.04-.47-4.3-1.24l-47.83,73.16c42.69-3.94,78.12-32.81,91.67-71.92h-4.32c-4.54,0-8.22-3.68-8.22-8.23h0Z"/>
  <polygon class="cls-3" points="221.79 197.94 173.96 271.1 221.79 197.94 221.79 197.94 221.79 197.94"/>
  <path class="cls-1" d="m218.43,165.66c0-23.83-10.61-38.05-28.39-38.05-19.18,0-31.1,14-31.1,36.53,0,2.45.18,4.8.53,7.04-1.04-9.28-7.57-13.51-14.38-15.9h7.89c2.73,0,4.94-2.21,4.94-4.93,0-8.45-5.29-22.74-25.13-22.74-14.91,0-24.93,9.27-24.93,23.07,0,5.77,2.16,13.07,11.65,17.1h-8.43c-1.35,0-2.63.55-3.57,1.52-.07.07-.12.16-.18.23-.2-.73-.56-1.41-1.07-1.98-.94-1.03-2.26-1.62-3.66-1.62h-8.58c-2.4,0-4.45,1.72-4.86,4.09-1.01,5.78-3.98,9.37-7.76,9.37-2.6,0-9.5,0-9.5-16.89,0-4.95.94-16.45,9.6-16.45,3.36,0,6.62.96,7.64,7.94.35,2.42,2.43,4.22,4.88,4.22h8.58c1.37,0,2.68-.57,3.61-1.57.93-1,1.41-2.35,1.31-3.71-.88-12.24-7.83-25.32-24.71-25.32-18.68,0-30.28,14-30.28,36.53,0,19.97,11.48,33.38,28.56,33.38,15.01,0,22.73-9.9,25.44-20.68,1.98,13.72,11.11,20.68,27.27,20.68,15.21,0,25.84-9.75,25.84-23.72,0-.87-.06-1.68-.14-2.47,2.5,15.93,13.44,26.19,28.78,26.19,9.42,0,14.03-2.3,17.62-4.79,8.56-5.94,11.41-15.74,11.78-19.02.02-.19.03-.38.03-.56,0-1.2-.44-2.38-1.25-3.28-.07-.08-.18-.11-.25-.19,1.32-.89,2.23-2.32,2.23-4.02h0Zm-84.74,13.74c-8.63,0-8.88-3.57-9.11-7.01-.1-1.47-.88-2.7-1.97-3.54.4.12.71.28,1.13.39,0,0,10.31,2.72,10.31,2.72,5.34,1.45,6.51,2.26,6.74,2.61,0,0,.09.19.09.76,0,3.68-5.02,4.08-7.18,4.08h0Zm7.44-25.34l-8.89-2.39c-1.57-.42-5.21-1.4-5.9-2.09,0,0,0,0,0,0,0-.06-.04-.3-.04-.74,0-2.88,4.26-3.1,5.57-3.1,7.45,0,7.53,2.75,7.59,4.76.04,1.47.76,2.73,1.8,3.6-.05-.01-.1-.03-.14-.04,0,0,0,0,.01,0h0Zm57.06-.93h-18.58c1.66-4.08,5.23-7.07,9.18-7.07,3.59,0,7.62,1,9.4,7.07h0Zm.48,19.66c-.12,1.59-3.09,6.61-9.15,6.61-3.95,0-8.95-1.09-10.44-8.8h20.36c-.41.66-.71,1.37-.78,2.19h0Z"/>
  <path class="cls-1" d="m251.42,127.61c-4.6,0-8.85,1.43-12.63,3.91-.88-1.34-2.33-2.28-4.05-2.28h-8.65c-2.73,0-4.94,2.21-4.94,4.94v56.78c0,2.73,2.21,4.94,4.94,4.94h9.17c2.73,0,4.94-2.21,4.94-4.94v-30.94c0-12.95,7.23-13.96,9.45-13.96,4.3,0,6.74.46,6.74,9.94v34.96c0,2.73,2.21,4.94,4.93,4.94h9.17c2.73,0,4.94-2.21,4.94-4.94v-38.65c0-15.46-8.98-24.69-24.01-24.69h0Z"/>
  <polygon class="cls-1" points="163.94 76.51 167.83 88.51 180.45 88.51 170.24 95.93 174.14 107.92 163.94 100.51 153.73 107.92 157.63 95.93 147.42 88.51 160.04 88.51 163.94 76.51 163.94 76.51"/>
  <path class="cls-4" d="m63.92,77.85l3.23-1.88c1.58,1.97,2.45,3.82,2.6,5.55.15,1.73-.38,3.34-1.59,4.84-1.5,1.85-3.51,2.74-6.06,2.66-2.54-.08-5.18-1.23-7.92-3.44-2.9-2.34-4.66-4.75-5.3-7.25-.64-2.49-.16-4.72,1.41-6.67,1.38-1.71,3.12-2.59,5.24-2.64,1.25-.04,2.7.35,4.35,1.15l-1.42,3.48c-1.04-.56-2.03-.79-2.97-.69-.95.1-1.72.53-2.33,1.28-.84,1.04-1.05,2.25-.65,3.65.41,1.39,1.65,2.93,3.72,4.6,2.2,1.78,4.03,2.72,5.48,2.84,1.45.11,2.59-.34,3.41-1.36.61-.75.83-1.64.67-2.67-.16-1.02-.79-2.17-1.88-3.45h0Z"/>
  <polygon class="cls-4" points="74.55 78.31 59.23 62.02 68.85 52.97 71.46 55.74 64.45 62.32 67.84 65.92 74.35 59.79 76.96 62.56 70.44 68.69 74.56 73.07 81.83 66.24 84.43 69.01 74.55 78.31 74.55 78.31"/>
  <polygon class="cls-4" points="86.63 67.2 73.69 48.96 76.55 46.94 91.21 54.9 82.54 42.69 85.27 40.75 98.21 58.99 95.26 61.08 80.89 53.33 89.36 65.27 86.63 67.2 86.63 67.2"/>
  <polygon class="cls-4" points="104.89 55.29 96.24 38.87 91.56 41.34 89.79 37.97 102.34 31.36 104.11 34.73 99.43 37.2 108.07 53.62 104.89 55.29 104.89 55.29"/>
  <path class="cls-4" d="m114.71,50.28l-7.69-21,7.1-2.6c1.78-.65,3.15-.94,4.1-.86.95.08,1.84.51,2.68,1.3.84.79,1.48,1.8,1.94,3.04.58,1.57.69,3.01.33,4.3-.36,1.29-1.21,2.34-2.57,3.14.92.27,1.73.64,2.43,1.11.7.47,1.75,1.38,3.15,2.72l3.54,3.36-3.98,1.46-4.13-3.7c-1.47-1.31-2.44-2.12-2.92-2.43-.48-.31-.92-.47-1.34-.5-.42-.02-1.02.1-1.8.39l-.69.25,3.22,8.79-3.38,1.24h0Zm-1.06-13.35l2.49-.91c1.62-.59,2.59-1.05,2.93-1.36.34-.32.55-.73.62-1.23.07-.5,0-1.07-.23-1.7-.26-.7-.62-1.22-1.07-1.54-.46-.32-.98-.44-1.57-.36-.29.05-1.12.33-2.48.83l-2.63.96,1.94,5.31h0Z"/>
  <path class="cls-4" d="m128.46,33.71c-.46-2.24-.57-4.17-.35-5.8.17-1.2.51-2.31,1.02-3.34.51-1.03,1.13-1.84,1.86-2.44.98-.8,2.18-1.35,3.61-1.64,2.59-.53,4.86.06,6.82,1.75,1.96,1.69,3.31,4.33,4.04,7.9.72,3.55.52,6.48-.61,8.8-1.13,2.32-2.99,3.74-5.57,4.26-2.61.53-4.89-.04-6.83-1.72-1.95-1.68-3.28-4.27-3.99-7.76h0Zm3.6-.89c.51,2.49,1.35,4.29,2.54,5.39,1.19,1.1,2.49,1.5,3.91,1.21,1.42-.29,2.46-1.16,3.11-2.63.65-1.46.72-3.47.2-6.02-.51-2.52-1.34-4.31-2.48-5.37-1.14-1.06-2.45-1.44-3.92-1.14-1.47.3-2.53,1.17-3.17,2.61-.64,1.44-.71,3.42-.19,5.96h0Z"/>
  <path class="cls-4" d="m156.47,33.02l3.5-.41c.21,1.47.64,2.55,1.29,3.23.65.69,1.53,1.03,2.63,1.03,1.17,0,2.05-.31,2.64-.92.59-.61.89-1.33.89-2.15,0-.53-.13-.98-.37-1.34-.25-.37-.68-.69-1.3-.97-.42-.18-1.39-.51-2.89-.98-1.94-.6-3.29-1.34-4.07-2.21-1.1-1.23-1.65-2.74-1.65-4.51,0-1.14.26-2.21.77-3.2.52-.99,1.26-1.75,2.23-2.27.97-.52,2.14-.78,3.52-.78,2.24,0,3.93.62,5.06,1.86,1.13,1.24,1.73,2.9,1.78,4.97l-3.6.15c-.16-1.15-.49-1.98-1-2.48-.51-.5-1.27-.76-2.29-.76s-1.87.27-2.47.81c-.38.35-.57.81-.57,1.39,0,.53.18.98.54,1.36.45.48,1.56.98,3.32,1.5,1.76.52,3.05,1.06,3.89,1.61.84.56,1.5,1.31,1.98,2.28.48.96.71,2.15.71,3.57,0,1.28-.29,2.49-.85,3.61-.57,1.12-1.37,1.95-2.42,2.5-1.04.54-2.34.82-3.89.82-2.26,0-4-.66-5.21-1.97-1.21-1.31-1.94-3.23-2.17-5.74h0Z"/>
  <path class="cls-4" d="m173.9,40.55l2.94-22.17,5.76.76c2.18.29,3.59.59,4.22.9.97.47,1.73,1.3,2.27,2.51.54,1.21.69,2.69.46,4.46-.18,1.36-.53,2.48-1.05,3.35-.52.88-1.12,1.54-1.8,1.99-.68.45-1.35.72-2,.8-.89.1-2.14.04-3.77-.18l-2.34-.31-1.11,8.36-3.57-.47h0Zm6-17.92l-.83,6.27,1.98.26c1.42.19,2.39.2,2.9.03.51-.17.93-.48,1.27-.93.34-.46.55-1.01.64-1.66.11-.8,0-1.49-.31-2.07-.31-.57-.75-.96-1.32-1.17-.42-.16-1.28-.32-2.58-.49l-1.75-.23h0Z"/>
  <path class="cls-4" d="m192.4,32.01c.62-2.2,1.41-3.97,2.35-5.31.7-.99,1.52-1.82,2.44-2.5.92-.68,1.85-1.12,2.78-1.31,1.24-.26,2.55-.2,3.96.2,2.54.72,4.29,2.28,5.26,4.68.97,2.4.95,5.36-.04,8.87-.99,3.48-2.52,5.99-4.58,7.53-2.07,1.54-4.37,1.95-6.9,1.23-2.56-.73-4.32-2.28-5.28-4.67-.96-2.39-.95-5.3.02-8.73h0Zm3.6.86c-.69,2.45-.77,4.43-.22,5.95.55,1.52,1.52,2.48,2.92,2.87,1.4.4,2.72.09,3.97-.91,1.25-1,2.23-2.75,2.94-5.26.7-2.48.79-4.45.26-5.91-.53-1.47-1.51-2.4-2.95-2.81-1.44-.41-2.78-.12-4.01.86-1.23.98-2.2,2.72-2.91,5.2h0Z"/>
  <path class="cls-4" d="m208.43,48.35l9.24-20.36,6.88,3.12c1.73.78,2.9,1.54,3.52,2.26.62.72.95,1.66,1,2.8.05,1.15-.2,2.32-.75,3.52-.69,1.53-1.62,2.63-2.78,3.3-1.16.67-2.5.82-4.03.44.46.84.78,1.67.96,2.5.17.83.29,2.21.34,4.15l.17,4.88-3.86-1.75-.35-5.53c-.13-1.97-.25-3.22-.38-3.78-.12-.55-.33-.99-.61-1.3-.28-.31-.8-.64-1.55-.98l-.67-.3-3.87,8.52-3.28-1.49h0Zm8.61-10.26l2.42,1.1c1.57.71,2.58,1.07,3.05,1.08.47.01.9-.14,1.31-.44.41-.31.75-.76,1.02-1.37.31-.68.41-1.3.32-1.85-.1-.55-.39-1-.87-1.35-.24-.17-1.03-.55-2.35-1.15l-2.55-1.16-2.34,5.15h0Z"/>
  <polygon class="cls-4" points="227.91 58.12 237.76 42.39 233.27 39.58 235.28 36.36 247.31 43.89 245.29 47.11 240.81 44.3 230.96 60.03 227.91 58.12 227.91 58.12"/>
  <polygon class="cls-4" points="237.14 64.3 250.65 46.48 253.52 48.65 240 66.47 237.14 64.3 237.14 64.3"/>
  <polygon class="cls-4" points="246.13 71.58 256.61 50.83 259.49 53.48 251.58 68.7 266.05 59.52 268.86 62.11 248.97 74.19 246.13 71.58 246.13 71.58"/>
  <path class="cls-4" d="m262.86,72.17c1.77-1.44,3.43-2.44,4.97-3,1.14-.41,2.29-.62,3.43-.65,1.15-.03,2.16.14,3.03.52,1.17.49,2.21,1.3,3.13,2.43,1.67,2.04,2.21,4.33,1.62,6.85-.59,2.52-2.29,4.94-5.12,7.25-2.8,2.29-5.5,3.47-8.07,3.54-2.58.07-4.7-.91-6.36-2.95-1.68-2.06-2.23-4.35-1.65-6.85.58-2.5,2.26-4.88,5.02-7.14h0Zm2.46,2.77c-1.97,1.61-3.17,3.19-3.59,4.75-.42,1.56-.17,2.9.74,4.03.92,1.12,2.18,1.64,3.77,1.53,1.6-.1,3.41-.98,5.42-2.62,1.99-1.63,3.2-3.19,3.6-4.69.41-1.5.14-2.83-.81-4-.95-1.16-2.21-1.69-3.78-1.6-1.57.1-3.36.97-5.36,2.6h0Z"/>
  <polygon class="cls-4" points="30.36 223.72 50.33 213.67 56.27 225.47 52.87 227.18 48.55 218.59 44.14 220.81 48.16 228.8 44.76 230.51 40.75 222.52 35.37 225.22 39.85 234.13 36.45 235.84 30.36 223.72 30.36 223.72"/>
  <path class="cls-4" d="m57.78,228.08l3.73,5.43c.84,1.22,1.37,2.24,1.57,3.04.27,1.08.22,2.21-.17,3.38-.39,1.17-1.06,2.33-2.02,3.46-.96,1.13-2.3,2.29-4.02,3.48-1.52,1.04-2.93,1.79-4.23,2.25-1.59.55-3.04.78-4.34.66-.98-.08-1.95-.44-2.91-1.07-.71-.48-1.44-1.26-2.2-2.36l-3.84-5.59,18.42-12.67h0Zm-1.09,5.12l-12.16,8.36,1.53,2.22c.57.83,1.04,1.39,1.42,1.68.48.38,1.01.61,1.59.68.58.07,1.35-.07,2.31-.44.96-.36,2.15-1.03,3.57-2.01,1.42-.98,2.44-1.83,3.06-2.55.62-.72,1.02-1.41,1.2-2.07.18-.65.15-1.31-.08-1.97-.17-.5-.67-1.35-1.51-2.57l-.92-1.34h0Z"/>
  <path class="cls-4" d="m67.92,242.43l2.44,2.65-8.93,8.21c-1.42,1.3-2.31,2.18-2.67,2.63-.57.73-.87,1.5-.88,2.3-.02.8.31,1.57.99,2.31.69.75,1.4,1.14,2.14,1.16.74.03,1.42-.18,2.05-.62.63-.44,1.6-1.26,2.91-2.46l9.12-8.39,2.44,2.65-8.66,7.96c-1.98,1.82-3.44,3.03-4.39,3.64-.95.61-1.88.98-2.8,1.11-.92.13-1.84.03-2.76-.31-.92-.34-1.86-1.02-2.82-2.06-1.15-1.25-1.84-2.37-2.07-3.35-.23-.98-.23-1.93,0-2.84.23-.91.62-1.72,1.14-2.42.79-1.04,2.1-2.41,3.94-4.11l8.79-8.08h0Z"/>
  <path class="cls-4" d="m79.92,273.37l1.86,3.25c-1.98,1.57-3.84,2.42-5.56,2.55-1.73.13-3.34-.41-4.83-1.63-1.84-1.51-2.71-3.54-2.61-6.08.1-2.54,1.26-5.17,3.5-7.9,2.36-2.88,4.79-4.63,7.29-5.24,2.5-.62,4.72-.13,6.66,1.47,1.7,1.39,2.56,3.14,2.6,5.26.03,1.25-.37,2.7-1.19,4.34l-3.47-1.45c.57-1.03.81-2.02.71-2.97-.1-.95-.52-1.73-1.26-2.34-1.03-.84-2.24-1.07-3.64-.67-1.4.4-2.94,1.63-4.63,3.69-1.79,2.19-2.76,4.01-2.88,5.46-.13,1.45.32,2.59,1.33,3.42.75.61,1.64.84,2.66.69,1.03-.15,2.18-.77,3.46-1.85h0Z"/>
  <path class="cls-4" d="m95.87,293.63l-3.31-2.01,1.32-5.15-6.13-3.72-3.91,3.58-3.3-2,17.55-15.51,3.26,1.98-5.47,22.84h0Zm-1.01-11.02l2.13-8.33-6.32,5.78,4.19,2.54h0Z"/>
  <polygon class="cls-4" points="101.75 296.26 109.45 279.38 104.63 277.18 106.21 273.72 119.12 279.6 117.54 283.07 112.72 280.87 105.02 297.76 101.75 296.26 101.75 296.26"/>
  <polygon class="cls-4" points="113.6 301.22 121.04 280.13 124.44 281.33 116.99 302.41 113.6 301.22 113.6 301.22"/>
  <polygon class="cls-4" points="126.39 305.25 125.68 282.02 129.48 282.97 129.81 300.12 138.13 285.13 141.84 286.06 130.14 306.19 126.39 305.25 126.39 305.25"/>
  <path class="cls-4" d="m141.28,297.45c.23-2.27.7-4.15,1.41-5.64.52-1.09,1.18-2.05,1.98-2.89.79-.83,1.63-1.42,2.51-1.77,1.17-.47,2.48-.63,3.93-.48,2.62.27,4.62,1.51,5.99,3.71,1.36,2.2,1.86,5.12,1.49,8.75-.37,3.6-1.44,6.34-3.22,8.21-1.77,1.87-3.97,2.67-6.59,2.4-2.65-.27-4.65-1.5-6.01-3.69-1.36-2.19-1.85-5.05-1.48-8.6h0Zm3.7.23c-.26,2.53,0,4.5.81,5.9.8,1.4,1.93,2.18,3.37,2.33,1.44.15,2.7-.38,3.75-1.58,1.06-1.2,1.72-3.1,1.99-5.69.26-2.56.01-4.52-.76-5.87-.77-1.35-1.9-2.11-3.4-2.26-1.49-.15-2.76.36-3.81,1.54-1.04,1.18-1.7,3.06-1.97,5.63h0Z"/>
  <polygon class="cls-4" points="171.05 310.1 168.9 287.85 172.38 287.51 181.13 301.71 179.69 286.8 183.02 286.48 185.17 308.74 181.58 309.09 172.97 295.21 174.38 309.78 171.05 310.1 171.05 310.1"/>
  <path class="cls-4" d="m207.27,303.86l-3.77.92-2.7-4.58-6.97,1.69-.24,5.3-3.75.91,1.48-23.37,3.7-.9,12.25,20.04h0Zm-8.49-7.09l-4.37-7.4-.39,8.56,4.76-1.16h0Z"/>
  <polygon class="cls-4" points="210.01 302.89 208.54 299.1 212 282.2 204.29 285.2 202.91 281.66 215.13 276.91 216.4 280.16 212.8 297.73 222.19 294.07 223.57 297.62 210.01 302.89 210.01 302.89"/>
  <polygon class="cls-4" points="227.04 295.83 217.13 275.78 220.35 274.19 230.26 294.23 227.04 295.83 227.04 295.83"/>
  <path class="cls-4" d="m228.64,282.9c-1.22-1.93-2.01-3.7-2.38-5.3-.27-1.18-.34-2.35-.23-3.49s.4-2.12.88-2.94c.63-1.1,1.56-2.03,2.79-2.81,2.23-1.41,4.56-1.67,7-.78,2.43.89,4.63,2.87,6.57,5.96,1.93,3.06,2.78,5.88,2.54,8.44-.24,2.57-1.47,4.55-3.69,5.96-2.25,1.42-4.59,1.69-7,.81-2.42-.88-4.58-2.83-6.48-5.85h0Zm3.05-2.1c1.36,2.15,2.78,3.53,4.28,4.14,1.5.61,2.86.52,4.09-.25,1.23-.77,1.89-1.96,1.98-3.56.09-1.6-.56-3.5-1.95-5.7-1.37-2.18-2.78-3.56-4.22-4.15-1.44-.59-2.8-.48-4.06.32-1.27.8-1.95,1.99-2.04,3.56-.09,1.57.55,3.45,1.93,5.64h0Z"/>
  <polygon class="cls-4" points="253.66 279.55 239.09 262.59 241.75 260.3 257.08 266.88 247.32 255.52 249.86 253.34 264.43 270.31 261.69 272.66 246.66 266.27 256.2 277.37 253.66 279.55 253.66 279.55"/>
  <path class="cls-4" d="m279.69,253.63l-2.56,2.91-4.84-2.2-4.73,5.39,2.84,4.48-2.55,2.9-12.21-19.99,2.51-2.86,21.53,9.37h0Zm-11.02-.93l-7.83-3.55,4.59,7.23,3.23-3.68h0Z"/>
  <polygon class="cls-4" points="282.26 249.96 263.81 237.61 265.81 234.62 281.1 244.86 286.13 237.34 289.3 239.46 282.26 249.96 282.26 249.96"/>
  <polygon class="cls-4" points="291.83 235.06 271.83 225.05 277.74 213.24 281.14 214.94 276.84 223.54 281.25 225.75 285.25 217.75 288.66 219.45 284.65 227.45 290.03 230.14 294.5 221.22 297.9 222.92 291.83 235.06 291.83 235.06"/>
  <path class="cls-2" d="m92.79,170.66c-1.34,7.67-5.71,12.44-11.41,12.44-8.76,0-13.2-6.93-13.2-20.59,0-4.73.96-20.15,13.31-20.15,6.51,0,10.21,3.63,11.3,11.1l.15,1.06h10.97l-.09-1.32c-.76-10.58-6.68-21.88-21.02-21.88-16.64,0-26.58,12.27-26.58,32.83,0,17.75,9.99,29.68,24.86,29.68s21.62-11.79,22.73-22.82l.14-1.36h-10.98l-.18,1.02h0Z"/>
  <path class="cls-2" d="m140.17,157.63l-8.88-2.39c-6.92-1.86-8.68-2.73-8.68-6.41,0-6.61,8.32-6.8,9.27-6.8,9.91,0,11.19,4.77,11.29,8.35l.03,1.2h11.02v-1.23c0-7.07-4.51-19.04-21.43-19.04-9.79,0-21.23,5.07-21.23,19.36,0,7.63,4.42,12.67,13.13,14.98,0,0,10.3,2.71,10.3,2.71,7.7,2.1,9.58,3.46,9.58,6.95,0,5.73-5.62,7.78-10.88,7.78-12.09,0-12.57-7.07-12.8-10.47l-.08-1.15h-11.03l.06,1.29c.23,5.21.93,21.05,23.95,21.05,13.24,0,22.13-8.04,22.13-20.02,0-8.51-4.57-13.19-15.76-16.18h0Z"/>
  <path class="cls-2" d="m190.04,131.32c-17.15,0-27.39,12.27-27.39,32.83,0,17.75,10.3,29.68,25.62,29.68,8.82,0,12.63-2.13,15.5-4.13,7.39-5.13,9.91-13.78,10.22-16.4l.16-1.37h-11.7l-.09,1.14c-.27,3.6-4.79,10.04-12.84,10.04-11.46,0-14.29-8.53-14.55-16.21h39.76v-1.23c0-21.83-9-34.35-24.69-34.35h0Zm-1.25,11.04c8.28,0,12.9,4.9,13.83,14.47h-27.6c.58-7.95,6.61-14.47,13.77-14.47h0Z"/>
  <path class="cls-2" d="m251.42,131.32c-7.24,0-12.19,3.63-15.44,7.49v-5.86h-11.12v59.25h11.64v-32.18c0-16.81,10.95-17.66,13.15-17.66,7.61,0,10.44,3.7,10.44,13.64v36.19h11.64v-39.89c0-18.95-14.2-20.99-20.31-20.99h0Z"/>
</svg>