<?xml version="1.0" encoding="UTF-8"?>
<svg id="Livello_2" data-name="Livello 2" xmlns="http://www.w3.org/2000/svg" xmlns:xlink="http://www.w3.org/1999/xlink" viewBox="0 0 236.04 49.08">
  <defs>
    <style>
      .cls-1 {
        clip-path: url(#clippath);
      }

      .cls-2 {
        fill: none;
      }

      .cls-2, .cls-3, .cls-4 {
        stroke-width: 0px;
      }

      .cls-3 {
        fill: #ea5241;
      }

      .cls-4 {
        fill: #fff;
      }
    </style>
    <clipPath id="clippath">
      <path class="cls-2" d="M39.78,5.52c-2.92-1.99-6.56-2.35-10.2-1.34-2.84.79-5.81.17-8.13-1.64C13.25-3.91.7,2.62.01,14.48c-.06.96.06,1.93.3,2.87,3.15,12.35,6.24,34.68,22.22,31.41,1.6-.33,3.08-1.11,4.3-2.2,10.36-9.3,25.91-30.87,12.95-41.03Z"/>
    </clipPath>
  </defs>
  <g id="Livello_1-2" data-name="Livello 1">
    <g>
      <path class="cls-3" d="M57.99,39.37c-1.5,0-3.08-4.66-3.46-5.9-1.37-4.49-1.71-9.11-1.88-13.86-.43-.43-.81-1.24-.81-1.84,0-.09.21-1.03.3-1.33.47-1.92.13-3.85,1.58-5.35.17.68,1.63-.09,1.88.81,0,.04-.04.34-.04.56,0,.17.17.68.3,1.03.81-.34,1.75-.56,2.69-.56,2.74,0,6.12,1.92,6.12,5.05,0,1.67-.51,3.55-1.63,4.83-1.2,1.63-4.28,3.34-4.28,3.98,0,3.42.86,6.71.86,10.22,0,1.28-.13,2.57-1.11,2.61v-.56c-.09.3-.3.3-.51.3ZM56.66,16.44c.43,2.27.81,4.7,1.58,6.93,1.2-1.07,3.21-3.34,3.21-5.09,0-1.58-1.84-2.44-3.16-2.44-.26,0-1.67,0-1.67.43,0,.04.04.13.04.17Z"/>
      <path class="cls-3" d="M63.5,23.54c.17,0,.68.17.81.26.34,1.24.6,1.67,1.15,2.95.81-1.97,2.95-3.59,4.92-3.59,1.67,0,3.25,1.24,3.64,4.49-.9-.56-1.67-.81-2.31-.81-2.52,0-3.34,3.68-3.34,5.43v5.26l-.39.3-.3-.3c-.17.3-.38.56-.68.56-.21,0-.34-.04-.43-.26-.04.21-.26.26-.43.26-.68,0-.94.09-1.28-.56-1.2-4.71-2.91-8.55-2.91-12.36,0-.26.09-1.03,1.54-1.62Z"/>
      <path class="cls-3" d="M80.78,22.35c3.51,0,5.18,1.03,5.86,4.66,1.24,6.76-2.95,11.03-7.96,11.03-3.34,0-5-3.25-5.35-5.65-.39-3.89,2.44-10.05,7.44-10.05ZM79.29,33.98c2.95,0,4.58-3.25,4.32-5.47-.26-1.92-1.24-4.19-3.51-3.08-2.48,1.2-3.17,8.17-.81,8.55Z"/>
      <path class="cls-3" d="M89.81,36.93s.04-.04.09-.04c-.39-.26-1.07-.21-1.07-.86.6-4.75,3.59-10.35,3.76-11.8l-4.06-8c-.26-.98-.56-1.45-.56-2.22s.56-2.91,1.63-2.91,4.36,4.53,6.03,6.67l.26.04c.3-.6,2.01-3.38,2.35-4.02.64-1.2,1.54-2.95,2.82-2.95.77,0,1.33.21,1.33.47,0,.04-.17.47-.3.6l.51-.21c.13.21.17.43.17.64,0,.73-.68,1.28-.94,1.75l-.73,1.45c-.43,1.11-2.57,6.07-2.57,6.16-.13.3,2.82,5.47,3.46,6.59l.26.43c1.37,2.4,2.52,4.45,2.52,7.36,0,.77-.9,1.33-1.45,1.33-1.28,0-2.1-1.75-2.82-2.78-1.88-1.75-4.32-5.73-4.96-5.86-.43-.09-2.91,6.84-5,8.34,0-.13-.13-.39-.21-.39s-.3.09-.43.17c.04,0,.09.04.13.09l-.21-.04Z"/>
      <path class="cls-3" d="M108.97,22.35c2.14,0,1.88,5.73,1.84,6.67v.13c0,.64-.04,1.24-.13,1.41,0,1.71-.9,6.37-2.52,6.37-2.1,0-2.1-2.44-2.1-3.98v-1.54c0-1.41,1.15-9.07,2.91-9.07ZM109.61,16.7c1.33,0,1.84.51,1.84,1.07,0,.68-.56.77-.81,1.33-.38.81-.51,2.01-2.05,2.01-1.11,0-2.27-1.5-2.27-2.57,0-1.15,2.4-1.84,3.29-1.84Z"/>
      <path class="cls-3" d="M130.99,26.32s.04.09.09.13c-1.71,4.41-1.45,7.4-5.22,7.4-.73,0-1.45-.04-1.92-.77-1.2-1.71-2.35-4.28-3.08-4.83-.21.09-.3.13-.3.17s.09.09.09.26c-.9,2.22-1.54,3.81-2.1,6.2-.39.73-1.41,1.03-2.27,1.03-3.12,0-3.12-5.99-3.12-8.17s.13-3.34,1.84-3.34c1.58,0,1.11,2.95,1.54,4.06,1.15-2.18,2.44-3.59,5-3.59,2.35,0,3.46,2.31,4.41,4.15.9-2.48,2.18-6.12,4.36-7.66.56-.38,1.71-.3,2.78-.3,3.38,0,4.49,4.19,4.88,7.19.04.51.04,2.91.04,3.42,0,3.08-.09,3.85-.26,5-.64,0-1.11.26-1.71.26-.9,0-.9-.94-1.11-1.8-.34-1.24-1.84-9.2-3.21-9.2-.13,0-.73.17-.73.38Z"/>
      <path class="cls-3" d="M146.73,24.14c1.45,0,2.05.56,3.21,1.28,3.55,1.2,4.15,5.13,4.15,8.21,0,1.2-.09,3.08-1.45,3.08-2.27,0-3.34-2.65-3.98-4.36-2.35,2.31-5.39,4.45-7.27,4.45-1.15,0-1.88-.77-1.88-2.61,0-3.72,3.25-10.05,7.23-10.05ZM143.36,32.01c0,.34.09.9.51.9.81,0,2.87-1.71,4.06-3.64.26-.98.3-2.1.47-2.82h-.13c-1.71.94-4.92,3.59-4.92,5.56Z"/>
      <path class="cls-3" d="M155.72,13.28c0-.56.64-3.17,1.28-3.17,1.07,0,1.37,2.18,1.75,3.29,1.97,3.55,4.62,10.39,7.01,13.77,0,.04.17.21.21.26,1.37-1.03,1.67-3.38,2.31-4.79.9-2.05,5.86-12.19,8.25-12.19,1.71,0,2.61,4.49,2.87,5.86.85,4.79,1.07,9.15,1.07,14.11,0,2.69-.34,5.86-2.95,5.86-1.92,0-2.52-5.22-2.69-6.59,0-2.18-.47-8.73-.47-13.64-.73.04-1.75,4.28-2.01,4.28-1.2,2.57-2.82,10.14-6.63,10.14-1.33,0-2.52-1.58-3.29-2.69h.04s-2.65-5.52-3.21-6.54c-.04.3-.04.6-.04.94,0,2.61.47,6.67.47,8.98v.81c0,.09-.17,6.33-2.31,6.33-1.8,0-1.75-5.35-1.75-6.93,0-5.18.09-14.46.09-18.09Z"/>
      <path class="cls-3" d="M191,22.09c1.67,0,3.55.94,3.55,2.82,0,.81-.47,1.97-.98,2.57-2.1,2.44-3.64,3.89-6.93,4.06.77.9,1.71,1.28,2.82,1.28.73,0,1.45-.26,2.18-.26.9,0,1.15.38,1.15,1.28,0,.04-.26.26-.26.26-1.07,2.1-2.78,2.31-5.13,2.31-4.02,0-5.35-1.84-5.43-5.86,0-5.05,4.45-8.47,9.02-8.47ZM191.22,24.36c-1.67,0-4.83,2.57-4.83,4.41,0,.04.04.21.04.26,1.71-.21,5.69-2.65,5.69-3.94,0-.13-.04-.21-.09-.3-.17-.3-.47-.43-.81-.43Z"/>
      <path class="cls-3" d="M204.09,28.59c-3.12,0-4.83,8.64-6.42,8.64-.94,0-1.62-1.92-1.62-2.82,0-.81.09-3.34.26-5.65,0-1.54.21-3.64,2.18-3.64,1.03,0,1.62,1.92,1.62,2.61,1.45-1.58,3.59-3.85,6.03-3.85s4.41,3.81,4.45,5.9c0,.04.04,1.67.04,2.27v.34c0,2.27,0,4.32-2.31,5.3-1.41,0-2.01-2.22-3.08-8.17-.13-.6-.04-.64-.47-.81-.21-.09-.47-.13-.68-.13Z"/>
      <path class="cls-3" d="M216.24,18.16c0-.3-.3-.43-.73-.43-.98,0-2.69.6-3.08.6-.26,0-.51-.04-.51-.51,0-2.87,3.64-3.68,5.35-4.83.64-.43.77-1.07,1.67-1.07.39,0,.77.04,1.03.3,3.81,0,10.14-.34,10.14,2.4,0,2.14-7.83,2.57-8.55,3.17,0,5.05.56,10.05.56,15.14,0,1.75-.17,4.36-1.71,4.36-.81,0-1.5-.04-2.31-.3-.85-.26-1.71-2.82-1.88-3.46-.64-2.14-.81-4.23-.81-6.5,0-2.99.86-5.9.86-8.85Z"/>
      <path class="cls-3" d="M232.49,22.09c1.67,0,3.55.94,3.55,2.82,0,.81-.47,1.97-.98,2.57-2.1,2.44-3.64,3.89-6.93,4.06.77.9,1.71,1.28,2.82,1.28.73,0,1.45-.26,2.18-.26.9,0,1.15.38,1.15,1.28,0,.04-.26.26-.26.26-1.07,2.1-2.78,2.31-5.13,2.31-4.02,0-5.35-1.84-5.43-5.86,0-5.05,4.45-8.47,9.02-8.47ZM232.7,24.36c-1.67,0-4.83,2.57-4.83,4.41,0,.04.04.21.04.26,1.71-.21,5.69-2.65,5.69-3.94,0-.13-.04-.21-.09-.3-.17-.3-.47-.43-.81-.43Z"/>
    </g>
    <g>
      <path class="cls-3" d="M39.78,5.52c-2.92-1.99-6.56-2.35-10.2-1.34-2.84.79-5.81.17-8.13-1.64C13.25-3.91.7,2.62.01,14.48c-.06.96.06,1.93.3,2.87,3.15,12.35,6.24,34.68,22.22,31.41,1.6-.33,3.08-1.11,4.3-2.2,10.36-9.3,25.91-30.87,12.95-41.03Z"/>
      <g class="cls-1">
        <g>
          <path class="cls-4" d="M16.32,30.61c-1.43.56-4.69-3.29-5.53-4.33-3-3.77-5.07-8.05-7.02-12.51-.57-.25-1.24-.88-1.47-1.45-.03-.08-.18-1.06-.21-1.38-.28-2.01-1.33-3.72-.5-5.7.42.59,1.52-.69,2.1.07.02.04.09.34.17.55.06.16.42.59.67.87.65-.63,1.46-1.19,2.36-1.55,2.61-1.03,6.56-.47,7.74,2.51.63,1.59.85,3.58.27,5.22-.53,2-2.82,4.79-2.58,5.41,1.29,3.26,3.35,6.08,4.67,9.43.48,1.22.84,2.5-.08,2.91l-.21-.53c.03.32-.17.4-.38.48ZM6.42,9.24c1.26,2,2.55,4.18,4.12,6.01.74-1.47,1.8-4.39,1.14-6.07-.6-1.51-2.67-1.63-3.94-1.13-.24.1-1.59.63-1.43,1.04.02.04.09.11.11.15Z"/>
          <path class="cls-4" d="M18.04,23.8s.03-.03.06-.03c-.26-.2-.74-.2-.71-.66.65-3.32,3.04-7.12,3.23-8.14l-2.48-5.84c-.13-.71-.32-1.05-.28-1.6.04-.54.53-2.02,1.29-1.97.75.05,2.86,3.41,3.93,5l.18.04c.24-.41,1.58-2.29,1.85-2.72.51-.81,1.23-2.01,2.13-1.94.54.04.92.22.91.4,0,.03-.14.32-.24.41l.37-.13c.08.16.1.31.09.46-.04.51-.55.87-.75,1.19l-.58.99c-.36.76-2.11,4.16-2.11,4.22-.11.2,1.72,4,2.12,4.81l.16.31c.85,1.76,1.56,3.26,1.42,5.31-.04.54-.7.89-1.09.86-.9-.06-1.39-1.34-1.86-2.1-1.24-1.33-2.77-4.25-3.21-4.37-.3-.08-2.38,4.68-3.94,5.64,0-.09-.07-.28-.13-.28-.06,0-.22.05-.31.1.03,0,.06.03.09.07l-.15-.04Z"/>
          <path class="cls-4" d="M8.22,33.11c-.15-.39-.43-2.41.02-2.59.75-.3,1.57,1.16,2.16,1.84,2.38,1.96,6.16,6.05,8.79,7.77.01.03.18.1.22.12.68-1.11.24-2.85.29-4.03.06-1.7.74-10.24,2.43-10.91,1.21-.48,3.09,2.44,3.66,3.34,1.94,3.14,3.31,6.16,4.69,9.67.75,1.9,1.39,4.23-.45,4.96-1.36.54-3.24-2.98-3.74-3.9-.61-1.54-2.76-6.03-4.14-9.5-.5.23-.05,3.51-.23,3.58-.13,2.15.83,7.94-1.85,9-.94.37-2.22-.41-3.08-.98h.03s-3.41-3.17-4.09-3.74c.05.22.14.44.23.68.73,1.84,2.19,4.58,2.84,6.21l.23.57c.02.06,1.64,4.52.13,5.11-1.27.5-2.73-3.29-3.17-4.4-1.44-3.65-3.97-10.23-4.98-12.8Z"/>
          <path class="cls-4" d="M33.43,14.82c.02-.3-.23-.44-.59-.47-.84-.06-2.34.44-2.67.41-.22-.02-.44-.07-.4-.54.2-2.85,3.35-3.44,4.89-4.49.58-.39.73-1.02,1.5-.96.33.02.65.09.85.36,3.25.22,8.67.26,8.48,2.98-.15,2.13-6.85,2.09-7.51,2.64-.35,5.02-.22,10.03-.57,15.09-.12,1.74-.45,4.33-1.76,4.24-.69-.05-1.27-.13-1.95-.44-.71-.31-1.27-2.91-1.37-3.55-.4-2.16-.4-4.26-.25-6.51.21-2.98,1.13-5.82,1.34-8.75Z"/>
        </g>
      </g>
    </g>
  </g>
</svg>